<svg width="127" height="127" viewBox="0 0 127 127" fill="none" xmlns="http://www.w3.org/2000/svg">
<path d="M126.623 63.5664C126.623 98.2662 98.4999 126.391 63.8147 126.391C29.1295 126.391 1 98.2662 1 63.5664C1 28.8665 29.1235 0.742188 63.8147 0.742188C98.506 0.742188 126.623 28.8726 126.623 63.5664Z" fill="#34801bff"/>
<path d="M63.6868 0.644531C28.9471 0.644531 0.78125 28.8173 0.78125 63.5656C0.78125 98.3139 28.9471 126.487 63.6868 126.487C98.4265 126.487 126.592 98.3139 126.592 63.5656C126.592 28.8173 98.4325 0.644531 63.6868 0.644531ZM63.6868 120.723C32.1251 120.723 6.54396 95.1351 6.54396 63.5656C6.54396 31.9961 32.1311 6.40866 63.6868 6.40866C95.2424 6.40866 120.83 31.9961 120.83 63.5656C120.83 95.1351 95.2424 120.723 63.6868 120.723Z" fill="#5edb20"/>
<path d="M18.9126 71.2851L12.6656 69.7593C12.3932 69.6988 12.2056 69.6443 12.1814 69.3415L11.9937 67.4525C11.9695 67.1861 12.2358 67.0165 12.5809 67.1073L18.3133 68.506L18.2528 67.9066L17.9138 64.4796C17.8835 64.195 18.0107 64.0436 18.3133 64.0134L19.7056 63.8741L21.7516 63.6743C22.0663 63.644 22.2419 63.7712 22.2722 64.0497L22.4417 65.7814C22.4659 66.0659 22.3266 66.2415 22.0058 66.2718L20.3835 66.4292L20.771 70.383C20.8194 70.8613 20.6923 71.1943 20.1414 71.2488C20.0385 71.2609 19.5421 71.3093 19.4695 71.3154C19.2576 71.3336 19.0821 71.3336 18.8944 71.2851" fill="white"/>
<path d="M16.6636 85.405L15.9735 83.6189C15.8222 83.2193 15.9069 83.0558 16.0825 82.8136L18.4796 79.32L18.4311 79.3018C18.2253 79.4593 17.9348 79.5864 17.6987 79.6227L15.011 79.9558C14.7205 79.9921 14.5631 79.98 14.4602 79.7136L13.8851 78.2241C13.7762 77.9456 13.8488 77.7458 14.097 77.6489L14.1817 77.6186L16.0522 77.334C16.9481 77.1948 17.5776 77.2432 18.189 77.4975L19.3028 77.9819L20.9977 75.2754C21.0825 75.1483 21.1914 75.0332 21.2883 74.9909C21.5183 74.9 21.706 74.9848 21.7907 75.2149L22.3658 76.7044C22.5352 77.1342 22.4142 77.3704 22.2447 77.6247L20.2411 80.755L20.2895 80.7731C20.4408 80.6763 20.9009 80.4401 21.1188 80.4159L23.2435 80.1495C23.5159 80.1192 23.6914 80.1253 23.7943 80.3917L24.4057 81.978C24.5813 82.4261 24.4178 82.5472 24.0546 82.5896L22.6079 82.7833C21.488 82.9286 21.028 82.8257 20.2895 82.4988L19.4178 82.1112L17.4202 85.3566C17.3355 85.4838 17.2447 85.5382 17.1599 85.5685C17.0449 85.6109 16.7483 85.6351 16.6575 85.399" fill="white"/>
<path d="M23.2427 95.6492L22.2076 94.2324C22.0321 93.9902 22.0744 93.7782 22.3347 93.5905L23.8662 92.4704L26.0999 90.8356C26.8747 90.2725 26.7415 89.8184 25.997 88.8012C25.6701 88.3592 25.1313 87.7659 24.8832 87.4873C24.7318 87.3118 24.6955 87.0756 24.9195 86.9061L25.9364 86.1614C26.1483 86.0039 26.2875 85.9252 26.5236 86.125C26.9958 86.5307 27.6253 87.2088 28.2972 88.1292C29.4352 89.6913 29.9921 91.2655 28.2185 92.5612L25.6096 94.4685L23.8904 95.7279C23.6301 95.9156 23.4183 95.8974 23.2427 95.6552" fill="white"/>
<path d="M37.3454 104.259C36.5221 104.992 35.8079 105.428 35.0573 105.506C34.2461 105.579 33.2473 105.131 32.1456 104.289L31.3103 103.654C30.2812 102.866 29.6335 102.043 29.573 101.214C29.5427 100.523 29.7667 99.8209 30.3297 98.7553L32.5694 94.523C32.6965 94.2627 32.9991 94.1597 33.2292 94.3353L34.682 95.4433C34.8514 95.5705 34.9301 95.7642 34.7667 96.067L32.9144 99.4092L32.9931 99.4213C33.1505 99.4516 33.4652 99.4697 33.78 99.1488L35.8744 96.9268C36.0984 96.6906 36.2921 96.6664 36.5221 96.8359L37.8781 97.8713C38.0597 98.0106 38.1263 98.1922 37.987 98.3738C37.9447 98.4283 37.872 98.4647 37.8297 98.5191L35.8442 100.396C35.2631 100.953 34.6698 101.086 33.889 100.941L32.2667 100.644C31.9398 101.335 32.0064 101.54 32.418 101.855L33.55 102.715C34.1311 103.157 34.5004 103.284 35.1541 102.691L38.9798 99.2215C39.1916 99.0277 39.3853 99.0156 39.5972 99.1791L41.0924 100.317C41.3466 100.511 41.2316 100.778 41.0379 100.947L37.3575 104.259H37.3454Z" fill="white"/>
<path d="M45.172 107.615L43.5376 106.925C43.2773 106.816 43.2108 106.61 43.3318 106.319L44.9359 102.547C45.0449 102.287 45.2325 102.208 45.4928 102.323L47.1393 103.025C47.4844 103.171 47.4601 103.352 47.3391 103.649L45.7652 107.355C45.6381 107.651 45.4323 107.73 45.172 107.621" fill="white"/>
<path d="M56.4694 114.195L50.1256 112.984C49.8471 112.93 49.7321 112.766 49.7866 112.488L50.0529 111.113C50.1074 110.817 50.2769 110.708 50.5554 110.756L53.9876 111.416L54.5566 108.437C54.6716 107.826 54.6716 107.462 53.4488 107.232C52.8919 107.123 52.0263 107.014 51.4755 106.966C51.191 106.929 51.0699 106.814 51.1244 106.536L51.3604 105.301C51.4089 105.04 51.4634 104.943 51.7842 104.895C52.3048 104.816 53.5396 104.962 54.4476 105.131C56.4694 105.519 57.6437 106.282 57.2866 108.146L56.5602 111.943L56.9416 112.015C57.1837 112.064 57.3471 112.258 57.2987 112.518L57.0687 113.723C57.0142 114.001 56.8205 114.274 56.4694 114.207" fill="white"/>
<path d="M77.3583 115.255L75.6452 115.637C75.3486 115.703 75.1791 115.576 75.1065 115.267L74.6949 113.414L73.5145 108.153C73.3026 107.22 72.8365 107.16 71.6077 107.432C71.069 107.553 70.3123 107.814 69.9552 107.929C69.7373 107.995 69.5012 107.941 69.4406 107.662L69.1682 106.433C69.1077 106.173 69.0956 106.016 69.3741 105.876C69.931 105.604 70.8087 105.301 71.9164 105.053C73.805 104.629 75.4636 104.75 75.9479 106.893L76.6561 110.042L77.6973 114.68C77.7639 114.995 77.661 115.176 77.3704 115.243" fill="white"/>
<path d="M85.0026 109.545L83.3864 110.284C83.1261 110.405 82.9324 110.314 82.7992 110.023L79.6636 103.145C79.5486 102.885 79.6152 102.697 79.8755 102.582L81.5038 101.837C81.8428 101.68 81.9639 101.819 82.097 102.11L85.2084 108.921C85.3416 109.212 85.2629 109.424 85.0026 109.539" fill="white"/>
<path d="M93.6465 104.339L90.7409 106.379C90.5109 106.543 90.3111 106.506 90.1477 106.276L89.3547 105.144C89.1792 104.896 89.2155 104.702 89.4455 104.539L90.6501 103.691L89.1005 101.487L88.6646 100.863C88.4225 100.512 88.1804 100.512 87.7022 100.845C87.5569 100.948 87.3934 101.081 87.3026 101.172C87.115 101.372 86.9758 101.36 86.8063 101.112L86.0436 100.022C85.8801 99.7916 85.8983 99.7553 86.0617 99.4889C86.1525 99.3375 86.9213 98.7321 87.2663 98.4899C88.5859 97.5635 89.5787 97.5817 90.5956 99.0348L90.9951 99.5979L93.7675 103.546C93.9915 103.866 93.9612 104.127 93.6525 104.339" fill="white"/>
<path d="M97.5834 96.1953L96.3364 97.4607C96.1367 97.6605 95.9248 97.6545 95.6948 97.4305L92.7771 94.5545C92.5773 94.3546 92.5713 94.1548 92.7771 93.955L94.0362 92.6775C94.2965 92.4111 94.4599 92.4958 94.6899 92.7199L97.5592 95.5474C97.7892 95.7715 97.7892 95.9955 97.5894 96.2013" fill="white"/>
<path d="M108.388 87.2098L107.456 88.7174C107.304 88.9596 107.086 89.0141 106.814 88.8446L105.004 87.7245L102.698 86.2955C102.02 85.8778 101.723 86.0473 101.221 86.8647C101.051 87.1371 100.736 87.6518 100.555 87.9727L105.47 91.0182C105.742 91.1878 105.791 91.4058 105.646 91.6479L104.713 93.1556C104.562 93.3978 104.356 93.4341 104.084 93.2646L98.5331 89.8315L97.8975 89.438C97.6735 89.2987 97.619 89.1413 97.7219 88.8506C98.0427 87.9243 98.975 86.2471 99.5621 85.2965C100.803 83.2863 102.111 82.8262 103.787 83.8615L106.396 85.4781L108.206 86.5983C108.479 86.7678 108.539 86.9676 108.388 87.2098Z" fill="white"/>
<path d="M113.184 73.7977L112.712 75.5052C112.64 75.7776 112.44 75.8927 112.131 75.8079L110.079 75.2388L107.464 74.5122C106.695 74.3003 106.429 74.7423 106.06 76.0743C105.836 76.8796 105.545 78.139 105.4 78.799C105.345 79.0593 105.182 79.1804 104.91 79.1078L103.711 78.7748C103.457 78.7021 103.318 78.5931 103.348 78.2904C103.396 77.6425 103.862 75.6202 104.123 74.6757C104.861 72.0055 106.011 71.3698 107.912 71.8965L110.781 72.6897L112.833 73.2589C113.142 73.3436 113.257 73.5253 113.178 73.7977M111.871 78.5568L111.399 80.2642C111.326 80.5367 111.132 80.6336 110.824 80.5488L108.548 79.9191C108.003 79.7677 107.41 79.3802 107.089 79.0714C106.962 78.9443 106.931 78.7687 106.986 78.581L107.349 77.2671C107.422 77.0128 107.597 76.9099 107.833 76.9765L111.526 77.9997C111.835 78.0845 111.95 78.2662 111.871 78.5568Z" fill="white"/>
<path d="M114.13 64.9339L114.045 66.708C114.033 66.9925 113.863 67.1257 113.548 67.1136L106 66.7564C105.716 66.7443 105.582 66.5929 105.595 66.3083L105.679 64.5161C105.697 64.1468 105.879 64.0984 106.194 64.1165L113.67 64.4677C113.99 64.4798 114.142 64.6493 114.13 64.9339Z" fill="white"/>
<path d="M25.4408 42.5252C26.0098 43.506 25.8161 44.6564 25.0837 46.2973V46.3154C24.3513 47.9381 23.6733 48.9795 22.4808 49.2157C21.6697 49.367 20.5014 49.1006 18.9336 48.3983C17.5958 47.7989 16.4396 47.1328 15.9675 46.4305C15.2653 45.4133 15.5922 44.0207 16.3186 42.398V42.3799C17.0571 40.739 17.8803 39.6128 19.0607 39.4554C19.8597 39.3404 21.1793 39.74 22.3718 40.2728C23.8852 40.9509 25.005 41.7502 25.4469 42.5252M21.5062 43.1004L20.4348 42.622C19.3149 42.1195 18.982 42.2951 18.5341 43.2881L18.4433 43.4818C17.9893 44.499 18.0377 44.7775 19.1576 45.274L20.2956 45.7826L20.9372 46.0672C22.0571 46.5697 22.39 46.3518 22.844 45.3346L22.8864 45.2438C23.2738 44.3719 23.189 43.839 22.1237 43.3668L21.5002 43.0883L21.5062 43.1004Z" fill="white"/>
<path d="M27.1374 35.235L25.9752 36.8032C25.7876 37.0514 25.5575 37.0756 25.273 36.8637L21.6532 34.1754C21.405 33.9877 21.3687 33.7697 21.5563 33.5215L22.7307 31.9412C22.9728 31.6142 23.1665 31.6808 23.451 31.8928L27.0043 34.5387C27.2888 34.7506 27.319 34.9928 27.1374 35.2471" fill="white"/>
<path d="M35.973 31.4034L33.1219 34.0675C32.8918 34.2794 32.6739 34.2733 32.4621 34.0433L31.4209 32.9292C31.1969 32.687 31.203 32.469 31.4269 32.251L32.6073 31.143L30.5795 28.9754L30.0044 28.3639C29.6836 28.0188 29.4233 28.0551 28.9512 28.491C28.8119 28.6242 28.6485 28.7998 28.5638 28.9088C28.3882 29.151 28.2369 29.1631 28.0129 28.9149L27.0141 27.8492C26.8023 27.6192 26.8144 27.5828 26.9536 27.268C27.0262 27.0924 27.7708 26.3174 28.1158 25.9965C29.4112 24.7855 30.4947 24.6523 31.8265 26.0812L32.347 26.6383L35.973 30.5133C36.2635 30.8282 36.2696 31.1188 35.973 31.3973" fill="white"/>
<path d="M44.6766 25.4148C44.2105 25.8568 43.2722 26.4986 42.6245 26.8619C41.8921 27.2736 40.2637 28.0365 39.4284 28.2605C39.1197 28.3453 38.9623 28.2302 38.817 27.9759L34.8582 20.9524C34.7068 20.68 34.7795 20.4559 35.07 20.2985L36.6863 19.3903C36.995 19.2147 37.2371 19.2571 37.4005 19.5477L40.5604 25.1605C41.1596 24.9122 41.1536 24.9365 41.6257 24.67C42.1039 24.4036 42.4126 24.2038 42.5882 23.9919C42.9211 23.6286 42.8424 23.2896 42.564 22.7931L41.5894 21.0614L41.3291 20.6012C41.0991 20.1895 40.8691 19.9837 40.6027 20.026C40.4393 20.0503 40.2577 20.129 40.0035 20.2743C39.7976 20.3893 39.7008 20.4923 39.5797 20.5589C39.3497 20.7102 39.2528 20.6981 39.0894 20.4075L38.3872 19.1663C38.2359 18.8938 38.2601 18.8575 38.4599 18.585C38.5749 18.4336 39.3194 17.919 39.6766 17.7192C40.9659 16.9926 42.4671 16.9502 43.5022 18.7848L43.8775 19.4508L45.0277 21.4913C45.748 22.7688 45.9901 24.1554 44.6645 25.4148" fill="white"/>
<path d="M57.2954 21.4724L55.4008 21.9265C55.0981 21.9992 54.8862 21.8721 54.8015 21.5269L54.2567 19.2503L53.5606 16.3441C53.3548 15.4903 52.7857 15.4661 51.3087 15.8173C50.4189 16.0292 49.0448 16.4167 48.3366 16.6286C48.0581 16.7134 47.8523 16.6286 47.7797 16.3198L47.4589 14.9938C47.3923 14.7093 47.4226 14.5216 47.7313 14.3884C48.385 14.0917 50.5824 13.468 51.6235 13.2137C54.5836 12.5053 55.8124 13.2743 56.3148 15.3814L57.0775 18.5722L57.6223 20.8488C57.707 21.1879 57.592 21.3998 57.2894 21.4724M52.017 22.7318L50.1223 23.1859C49.8196 23.2586 49.6259 23.1254 49.5412 22.7803L48.9359 20.2554C48.7906 19.65 48.8451 18.8749 48.9722 18.4027C49.0267 18.2089 49.178 18.0939 49.3899 18.0394L50.8487 17.6882C51.1332 17.6216 51.3209 17.7367 51.3874 18.0031L52.3681 22.1021C52.4528 22.4412 52.3378 22.6531 52.017 22.7258" fill="white"/>
<path d="M74.4838 18.6206L72.5771 18.2028C72.2744 18.1362 72.1594 17.9303 72.232 17.5913L73.1945 13.1894C73.2611 12.8867 73.4487 12.7656 73.7514 12.8322L75.6763 13.256C76.0759 13.3408 76.094 13.5467 76.0153 13.8918L75.071 18.2209C74.9984 18.5661 74.7865 18.6993 74.4838 18.6327" fill="white"/>
<path d="M84.7716 18.7916L84.5052 18.7674C84.0997 18.725 83.797 18.7916 83.5064 19.0278C83.1675 19.3305 82.8951 19.6817 82.6408 20.2932C82.5077 20.6202 82.4471 20.9532 82.3018 21.6555L81.7147 24.477C81.6965 24.5739 81.6844 24.6526 81.6541 24.7253C81.5573 24.9614 81.3454 24.9978 81.0246 24.8646L79.2449 24.1198C78.9362 23.9927 78.9181 23.7929 78.9847 23.4841L79.5658 20.8321C79.711 20.1782 79.705 20.045 79.8382 19.718C80.1832 18.8461 80.9096 18.1801 81.7994 17.8108L80.504 17.2658C80.2195 17.1447 80.1348 16.9389 80.2619 16.6361L80.8551 15.2133C80.9762 14.9226 81.182 14.8439 81.4665 14.959L85.5706 16.6785C85.8612 16.7996 85.9338 17.0236 85.8309 17.2719L85.3285 18.4768C85.2256 18.7311 85.0379 18.8219 84.7716 18.7916Z" fill="white"/>
<path d="M90.8847 29.853C89.9888 30.0347 88.9113 29.5987 87.7006 28.739C86.9379 28.194 86.0118 27.4432 85.4972 26.9589C85.2491 26.7348 85.358 26.5471 85.5275 26.311L86.3387 25.1667C86.5203 24.9124 86.72 24.9366 86.9561 25.1061C87.3859 25.4088 87.9307 25.8206 88.5057 26.2262C89.7648 27.1163 90.1946 27.086 90.7333 26.3231L91.9319 24.6338C92.4948 23.8407 92.0166 23.3078 90.8847 22.5026C90.3278 22.109 89.8859 21.8184 89.45 21.558C89.2018 21.4066 89.1413 21.219 89.3229 20.9647L90.128 19.8324C90.2975 19.5963 90.4367 19.4994 90.7515 19.6265C91.1571 19.7961 92.4646 20.5529 93.1304 21.0313C94.0687 21.6973 94.9827 22.5389 95.2491 23.2776C95.6062 24.325 95.0493 25.4088 93.8629 27.08C92.6522 28.7813 91.8108 29.6653 90.8907 29.853" fill="white"/>
<path d="M97.6284 38.0563L96.3633 36.5971C96.1454 36.3428 96.1756 36.1127 96.442 35.8826L98.0219 34.5142L100.328 32.5222C101.127 31.832 100.94 31.3476 100.032 30.3001C99.6381 29.84 98.9904 29.2405 98.6938 28.956C98.5122 28.7743 98.4456 28.52 98.6878 28.3202L99.735 27.412C99.9589 27.2183 100.104 27.1214 100.377 27.3212C100.927 27.7208 101.678 28.411 102.495 29.3556C103.888 30.9662 104.638 32.6373 102.804 34.2236L100.116 36.5486L98.3427 38.0805C98.0764 38.3106 97.8403 38.3045 97.6224 38.0563" fill="white"/>
<path d="M102.428 46.6305C102.252 46.2612 101.986 45.4801 101.956 45.1471C101.925 44.8141 101.944 44.7596 102.228 44.6264L103.427 44.0512C103.723 43.9059 103.844 44.0209 103.965 44.3115C104.074 44.584 104.22 44.8383 104.316 45.0502C104.553 45.5407 104.813 45.6315 105.273 45.4135L106.205 44.9655L107.967 44.1238C108.445 43.8938 108.766 43.6758 108.433 42.9674L107.833 41.7201C107.634 41.2963 107.5 41.2539 107.18 41.2115L101.78 43.8029C101.465 43.9543 101.229 43.8695 101.096 43.591L100.255 41.8291C100.122 41.5506 100.212 41.3326 100.527 41.1812L105.63 38.7351C105.878 38.614 106.036 38.3658 106.181 38.1236L106.447 37.6453C106.544 37.4878 106.599 37.3788 106.707 37.3244C106.81 37.2759 107.004 37.2275 107.143 37.288L108.838 38.166C109.159 38.3355 109.347 38.6382 109.207 38.8986L109.002 39.3224C108.868 39.5828 108.651 39.9884 108.578 40.1519C109.516 40.3941 109.94 40.5152 110.339 41.3447L110.999 42.7191C111.714 44.2147 111.544 45.6194 109.68 46.5094L106.762 47.9141L106.078 48.2411C104.335 49.0766 103.172 48.1381 102.446 46.6245" fill="white"/>
<path d="M56.9979 70.0979C56.9979 73.0769 54.5826 75.4927 51.6044 75.4927C48.6262 75.4927 46.2109 73.0769 46.2109 70.0979C46.2109 67.119 48.6262 64.7031 51.6044 64.7031C54.5826 64.7031 56.9979 67.119 56.9979 70.0979Z" fill="white"/>
<path d="M65.2358 94.0997C64.7092 94.13 64.1765 94.1421 63.6377 94.1421C46.6341 94.1421 32.8448 80.3554 32.8448 63.3415C32.8448 48.5679 43.6983 36.2101 56.6099 33.3584C58.1353 31.0454 60.49 29.0292 62.7479 27.5821C62.9719 27.4429 62.8629 27.0917 62.5966 27.0977C42.9537 27.6729 27.2031 43.7786 27.2031 63.5655C27.2031 83.3525 43.5348 100.058 63.6801 100.058C64.1704 100.058 64.6547 100.039 65.1389 100.021L65.2297 94.0997H65.2358Z" fill="#5edb20"/>
<path d="M88.7314 37.0458C88.5256 36.8521 88.2048 37.064 88.2956 37.3304C89.5184 40.8664 89.5184 46.6547 89.5184 46.6547C89.5184 46.6547 89.6213 46.8182 89.7363 46.9877C92.7145 51.7286 94.4397 57.3353 94.4397 63.3417C94.4397 75.548 87.3452 86.0894 77.0547 91.0785L77.2121 97.4602C90.6624 92.0896 100.178 78.9448 100.178 63.5717C100.178 52.764 95.7472 43.6879 88.7435 37.0519" fill="#5edb20ff"/>
<path d="M71.2661 27.2307C71.2661 27.2307 71.254 27.2307 71.2479 27.2307C71.2419 27.2307 71.2358 27.2307 71.2298 27.2307C63.1668 27.273 56.6172 35.6407 56.6172 45.9278C56.6172 49.4637 57.2286 52.9392 58.6087 55.4761L59.1777 56.566L65.5094 68.0882C69.1172 74.6334 68.9598 77.7274 68.9598 77.7879L68.9235 79.3864C68.4634 79.8768 68.1365 80.5247 68.0094 81.3057L67.955 82.1413V86.4946V98.0471C67.955 98.695 68.3363 99.3489 68.53 99.5487C69.2625 100.227 69.9041 100.106 70.455 100.106H71.2298H71.2479H72.0409C72.5918 100.106 73.2334 100.221 73.9658 99.5426C74.1535 99.3428 74.5409 98.6889 74.5409 98.0411V82.1352L74.4864 81.2997C74.3593 80.5186 74.0264 79.8707 73.5724 79.3803L73.5361 77.7818C73.5361 77.7213 73.3787 74.6273 76.9864 68.0821L83.3181 56.5599L83.8871 55.4701C85.2673 52.9271 85.8787 49.4577 85.8787 45.9217C85.8787 35.6347 79.329 27.267 71.2661 27.2246M74.3169 66.0477C72.2709 69.287 71.3811 73.1257 71.2479 73.7433C71.1148 73.1257 70.2189 69.287 68.1789 66.0477C67.5918 65.1153 67.2104 64.4977 66.7625 63.6743C68.1063 64.201 69.7467 64.6127 71.2298 64.6249C71.2298 64.6249 71.2419 64.6249 71.2479 64.6249C71.254 64.6249 71.26 64.6249 71.2661 64.6249C72.7491 64.6127 74.3835 64.201 75.7334 63.6743C75.2855 64.5038 74.9041 65.1153 74.3169 66.0477ZM71.2479 60.7256C65.3218 60.6953 60.5094 54.0714 60.5094 45.9278C60.5094 37.7841 65.3218 31.1602 71.2479 31.1299C77.168 31.1602 81.9864 37.7841 81.9864 45.9278C81.9864 54.0714 77.1741 60.6953 71.2479 60.7256Z" fill="#FEDC00"/>
</svg>
